<?xml version="1.0" encoding="UTF-8"?>
<svg id="Layer_1" xmlns="http://www.w3.org/2000/svg" version="1.1" viewBox="0 0 186.97 129.22">
  <!-- Generator: Adobe Illustrator 29.8.1, SVG Export Plug-In . SVG Version: 2.1.1 Build 2)  -->
  <defs>
    <style>
      .st0 {
        fill: #b49164;
      }
    </style>
  </defs>
  <path class="st0" d="M75.2,63.39c.07,0,.14.14,0,0h0Z"/>
  <path class="st0" d="M74.9,63.05c-.29-.25-.1-.08,0,0h0Z"/>
  <path class="st0" d="M80.65,55.74c-.2-1.05-.73-2-1.5-2.73-1.04-1.12-2.22-2.11-3.51-2.94-.92-.6-1.87-1.15-2.83-1.65l3.33-1.08,4.3-1.37h.21c.07,0,0-.1,0-.19v-.15c-.14-.26-.31-.5-.52-.71-.31-.37-.66-.69-1.07-.96-.09-.06-.19-.11-.3-.14l-3.02-1.05-7.35-2.5-8.73-3.05-7.56-2.62-2.47-.86c-.38-.16-.77-.3-1.18-.41-.21.01-.41.07-.6.16l-1.89.66-6.83,2.38-8.72,3.03-7.87,2.73-4.28,1.49-.25.07c-.22.08.66,1.07.68,1.08.33.43.76.77,1.26.98l3.02.97,2.49.79c-.61.3-1.22.61-1.83.94-1.17.61-2.3,1.32-3.36,2.1-.8.57-1.47,1.32-1.95,2.17-.17.33-.27.69-.27,1.07v3.83l1.97.64c-1.25,1.62-1.95,3.59-2,5.63.04.16.12.32.23.44.11.15.23.3.34.42l.11.11c.26.31.56.57.9.78-.94,2.14-1.45,4.43-1.52,6.76v1.54c.04.16.12.32.23.44.11.15.23.3.34.42l.11.11c-.46,2.34-.71,4.71-.75,7.09v1.99c.04.16.12.32.23.44.11.15.23.3.34.42l.11.11c.33.41.75.73,1.23.93l3.02.97,7.37,2.42,8.73,2.82,7.56,2.43,2.47.81c.38.16.77.28,1.18.37.21,0,.41-.05.6-.15l1.89-.6,6.83-2.21,8.72-2.81,7.83-2.53,4.3-1.37h.21v-.1c.09-3.25-.21-6.51-.89-9.69l.67-.22h.21v-.1c.08-3.23-.67-6.42-2.17-9.28l1.97-.71h.21v-.1c-.11-2.67-1.2-5.21-3.06-7.13l3.07-1v-2.16ZM72.06,60.95c.48.3.96.62,1.37.94h.07l.12.1.31.23.36.29.12.1h-.08l.11.08.3.27.15.14.23.25s0,.05,0,.07l.11.12c.08.1.16.2.25.29-.3-.31,0,.07.12.16.07.07.13.15.18.23v.08l.16.23.15.26-3.4,1.11c-1.92-1.34-3.93-2.53-6.03-3.57l4.97-1.67.42.29ZM74.97,68.68c.1.1.38.49.08.08.14.19.29.36.42.53l.08.11c0,.12.15.23.23.36l.19.3.1.15c.12.22.23.44.34.67.5,1.01.88,2.06,1.15,3.16v.29l-.78.25-4.1,1.37-11.83,3.85-10.26,3.31c-.72.23-1.48.44-2.19.71h-.12l-.85-.27-8.91-2.97-12.2-3.92-4.96-1.6c.14-.41.27-.82.44-1.23.93-2.29,2.46-4.3,4.43-5.81l4.1,1.37,8.73,2.82,7.56,2.45,2.47.79c.38.16.77.29,1.18.38.19,0,.38-.05.56-.12l1.89-.61,6.83-2.21,8.72-2.8,6.03-1.95.14.14c.11.1.48.46.07,0l.45.45-.14-.14.16.12ZM36.67,51.27l2.25.72c-1.23.85-2.5,1.64-3.8,2.36-1.3.72-2.24,1.18-3.38,1.75l-3.02-.92,1.13-.6c2.23-1.15,4.55-2.12,6.83-3.24l-.03-.08ZM65.36,62.85l3.32,1.76c.52.26,1.04.53,1.54.82l.71.4.34.19.16.1h.07l-.63.2-11.63,3.91-9.36,3.01-1.13.37-.34.12h-.08c-.09-.03-.18-.06-.27-.08l-1.08-.36-9.17-2.95-10.22-3.33c2.21-1.46,4.63-2.62,6.98-3.87l14.74,4.76,15.91-5.12.14.08ZM42.28,53.09l1.2.38c-1.76,1.7-3.67,3.23-5.71,4.58l-2.32-.75.79-.41c2.1-1.12,4.12-2.39,6.04-3.8ZM51.66,47.56c1.31,1.28,2.68,2.5,4.1,3.65l-3.24,1.05-.2-.27-.33-.4-.14-.21c-.18-.25-.36-.48-.52-.74l-.38-.6c-.45-.95-.67-2-.64-3.05v-.79c.52.46.89.92,1.35,1.35ZM49.31,51c.22-.33.44-.67.63-1.01.6.85,1.26,1.68,1.94,2.47l-2.31.74c-.38.12-.81.22-1.19.38-.14-.06-.28-.11-.42-.14l-.37-.12c.62-.74,1.2-1.51,1.72-2.32ZM46.57,54.47l2.47.79c.38.16.77.29,1.18.38.21,0,.41-.06.6-.15l1.89-.6,1.11-.37c.67.67,1.37,1.37,2.06,1.93.93.81,1.9,1.56,2.9,2.28l-9.44,3.05-8.2-2.64c1.95-1.37,3.76-2.94,5.4-4.67h.04ZM58.32,57.5l-.37-.27-.18-.14-.75-.57-.71-.57-.22-.19-.27-.22-.63-.56-.27-.26-.12-.11-.21-.21,3.79-1.23c.34.26.7.51,1.05.75,1.64,1.12,3.35,2.14,5.11,3.06l-4.71,1.53c-.54-.35-1.05-.68-1.54-1.01h.04ZM56.52,50.96l-.59-.44-1.12-.9-.25-.2-.18-.15-.42-.37c-.31-.26-.61-.53-.92-.81l-.41-.38-.19-.18c-.45-.44-.9-.87-1.37-1.37-.09-.06-.18-.14-.26-.22v-.1l-.41-.45v-2.99c3.39,2.57,6.9,4.96,10.54,7.17l-1.22.38-3.21,1ZM45.36,51.47c-.26.3-.52.6-.79.89l-.92-.3c.78-.61,1.53-1.24,2.27-1.89.51-.45,1.01-.9,1.49-1.37-.62.93-1.31,1.82-2.05,2.66ZM65.85,56.47l-2.61-1.27c-1.37-.72-2.73-1.52-4.1-2.38l.41-.12,4.35-1.37c1.2.6,2.43,1.16,3.66,1.74,1.23.57,2.25,1.07,3.35,1.64l.2.1-5.26,1.67ZM62.07,49.18c-2.58-1.38-5.07-2.92-7.46-4.62-1.37-.94-2.73-1.91-4.1-2.9l-.18-.14v-2.65c3.38,1.71,6.75,3.43,10.1,5.19.68.36,1.37.74,2.04,1.08.67.34,1.37.59,1.97.86l3.29,1.37-5.66,1.8ZM48.31,40.25c-1.59,1.15-3.09,2.27-4.65,3.36-2.69,1.95-5.5,3.72-8.42,5.32l-.51.26-3.5-1.13.56-.23c2.05-.87,4.17-1.63,6.18-2.6.85-.41,1.67-.89,2.5-1.37l3.91-2.02,3.7-1.87.19-.08.03.37ZM44.78,46.27c1.11-.77,2.21-1.54,3.31-2.34-1.04,1.19-2.15,2.32-3.32,3.39-1.41,1.3-2.88,2.52-4.43,3.66l-1.16-.37-.78-.26c2.2-1.23,4.3-2.66,6.38-4.09ZM30.9,61.95c-1.84.92-3.63,1.94-5.37,3.05-.45.29-.89.6-1.37.92l-1.11-.36c1.42-1.79,3.16-3.3,5.12-4.45l2.72.85ZM22.99,66.99c-.64.61-1.22,1.29-1.74,2.01.29-.77.65-1.52,1.07-2.23l.67.22ZM73.97,50.21c.55.27,1.08.56,1.6.86l.19.12h.12l.26.16.74.46.62.42h.08c.1.07.19.14.27.22l-5.56,1.91c-.87-.56-1.78-1.09-2.73-1.57-1.37-.72-2.73-1.37-4.1-2.02l2.84-.92,3.02-.96c.85.41,1.76.82,2.65,1.3ZM52.65,36.23l6.83,2.38,8.69,3.02,7.84,2.73.48.18-.94.3-6.14,1.97-1.75-.77c-2.16-.93-4.4-1.74-6.53-2.73-.82-.37-1.59-.83-2.38-1.24-1.28-.68-2.58-1.37-3.88-2.02l-4.58-2.34v-2.31c.13.07.28.12.42.15l1.93.68ZM22.59,45.27l-.4-.12.86-.3,7.27-2.51,8.75-3.03,7.56-2.62,1.68-.61v.71c-.23.1-.45.23-.67.34l-3.07,1.59c-2.53,1.28-5.07,2.57-7.57,3.92-1.73.87-3.5,1.66-5.3,2.35-1.37.66-2.88,1.19-4.3,1.83l-4.8-1.53ZM23.96,51.66c1.72-1.02,3.5-1.93,5.33-2.73l.98.33,2.65.85c-2.67,1.16-5.27,2.46-7.79,3.91l-3.01-1.01c.59-.48,1.2-.93,1.84-1.34h-.01ZM24.86,59.99c-1.43.98-2.69,2.18-3.74,3.55-.27.37-.51.74-.74,1.11h-.1c.35-1.99,1.31-3.82,2.73-5.25l1.84.59ZM78.56,83.35v.71h-.07c-.1.04-.2.08-.3.1l-1.24.41-10.71,3.46-12.69,4.1-4.1,1.37-.98.33h-.16c-.29-.12-.6-.19-.89-.29l-1.71-.55-5.1-1.64-13.01-4.25-7.46-2.38c-.03-2.79.26-5.58.86-8.31l2.04.66,7.3,2.34,8.73,2.82,7.56,2.45,2.47.79c.38.16.77.29,1.18.38.21,0,.41-.06.6-.15l1.89-.6,6.83-2.21,8.72-2.81,7.83-2.53,2.02-.64c.28,2.14.42,4.3.41,6.46ZM78.18,69.68c.14.76.24,1.53.3,2.3v.72c-.88-1.84-2.09-3.51-3.57-4.92l1.16-.37,1.37-.42c.31.89.55,1.81.71,2.75l.03-.05ZM76.96,59.01l.16.22.21.31.08.14s0,.08,0,.12c.08.14.15.27.22.41.49,1.01.78,2.1.85,3.22,0,.16.08.42,0,.51-.08.01-.16.01-.25,0l-1.37.42c-1.26-1.56-2.72-2.94-4.35-4.1l4.29-1.37.15.11Z"/>
  <path class="st0" d="M100.53,72.27c-.88,0-1.75.17-2.55.52-.8.35-1.52.86-2.1,1.49l.21.29c.55-.24,1.15-.38,1.76-.41,2.38,0,3.87,1.86,3.87,4.85v6.76h3.68v-8.75c.04-.63-.06-1.26-.29-1.85-.23-.59-.59-1.12-1.05-1.57-.46-.45-1.01-.8-1.62-1.03-.61-.23-1.26-.33-1.92-.3Z"/>
  <path class="st0" d="M95.09,72.26h-3.18v13.51h3.18v-13.51Z"/>
  <path class="st0" d="M115.01,83.69c-1.95,0-3.07-1.7-3.07-4.5v-6.93h-3.33v8.68c-.05.62.02,1.25.21,1.84.19.59.5,1.13.91,1.59.41.46.9.82,1.44,1.06.55.24,1.14.36,1.73.34.86-.02,1.71-.24,2.47-.65.77-.41,1.43-1,1.95-1.72l-.23-.27c-.64.38-1.36.58-2.1.58Z"/>
  <path class="st0" d="M121.31,72.26h-3.18v13.51h3.18v-13.51Z"/>
  <path class="st0" d="M130.94,77.34c-1.93-.59-3.6-1.16-3.6-2.38,0-.22.04-.44.13-.64v-.17h.25c.22-.05.45-.08.68-.08.65,0,1.29.13,1.88.39.59.26,1.13.64,1.56,1.11l.1.13,2.85-1.98-.15-.15c-.43-.43-.96-.77-1.53-1-.57-.22-1.19-.33-1.8-.31-.72-.01-1.43.13-2.09.41-.66.29-1.25.71-1.72,1.24l-.18.21h-.17c-.63.14-1.19.46-1.62.94-.43.47-.69,1.07-.76,1.7,0,2.13,2.35,2.89,4.61,3.64,1.67.55,3.33,1.07,3.46,2.15.03.39-.08.78-.32,1.09l-.13.18h-.27c-.26.03-.52.03-.78,0-1.51-.05-2.95-.67-4.01-1.74v-.13l-2.86,2,.15.15c.51.52,1.13.94,1.8,1.22.68.28,1.41.43,2.14.43.73.01,1.45-.13,2.12-.41.67-.28,1.27-.71,1.76-1.24l.2-.2h.23c.28,0,2.83-.81,2.71-3.14-.17-2-2.45-2.73-4.66-3.44Z"/>
  <path class="st0" d="M145.01,83.69c-2.13,0-3.37-1.7-3.37-4.5v-6.93h-3.63v8.68c-.06.62.02,1.25.23,1.84.21.59.55,1.13,1,1.59.44.46.98.82,1.58,1.06.6.24,1.24.36,1.89.34.94-.02,1.86-.24,2.69-.65.83-.41,1.56-1,2.12-1.72l-.25-.27c-.69.38-1.48.58-2.27.58Z"/>
  <path class="st0" d="M151.5,72.26h-3.18v13.51h3.18v-13.51Z"/>
  <path class="st0" d="M158.65,65.9h-3.97v19.86h3.97v-19.86Z"/>
  <path class="st0" d="M167.46,72.26h-3.19l-5.62,6.69,5.61,6.81h4.72l-6.64-7.88,5.12-5.63Z"/>
  <path class="st0" d="M127.66,63.52v-13.51h-3.49v11.08h-29.49l-2.77,2.01v.42h35.75Z"/>
  <path class="st0" d="M133.81,56.95c0,2.87-1.12,4.52-3.06,4.52-.73,0-1.44-.22-2.07-.61l-.22.27c.51.72,1.17,1.31,1.93,1.73.76.41,1.6.64,2.45.65.59.03,1.19-.08,1.74-.32.55-.24,1.05-.59,1.46-1.05.41-.46.73-1,.92-1.59s.27-1.23.22-1.86v-8.69h-3.37v6.94Z"/>
  <path class="st0" d="M138.79,44.11c-.12-.05-.25-.08-.39-.1h-.13v-.1c.07-.19.11-.4.11-.6,0-1.58-.76-2.04-1.4-2.04-.6.03-1.16.24-1.59.61-.42.36-.67.85-.71,1.36,0,.79.61,1.24,2.03,1.44h.24l-.19.13c-1.26.7-2.62,1.26-4.05,1.68l-.3.11h.31c.44.11.88.19,1.33.24,1.41-.37,2.68-1.04,3.7-1.95.1.02.2.06.3.1l.7-.84.02-.03ZM137.77,43.57c.02.1.02.2,0,.3-1.85-.32-2.27-.84-2.27-1.2s.55-.71,1.11-.71,1.16.71,1.16,1.62Z"/>
  <path class="st0" d="M163.41,53.18l-2.77-3.17-2.79,3.17,2.79,3.19,2.77-3.19Z"/>
  <path class="st0" d="M164.21,44.17c-.12-.05-.25-.08-.39-.1h-.11v-.1c.06-.2.09-.41.09-.61,0-1.62-.76-2.09-1.4-2.09-.6.03-1.16.25-1.58.62-.42.37-.67.86-.69,1.39,0,.81.61,1.26,2.03,1.47h.24l-.2.13c-1.26.71-2.62,1.29-4.05,1.71l-.3.11h.31c.43.07.87.12,1.31.13,1.35-.35,2.59-1,3.58-1.88l.28.1.7-.86.17-.03ZM163.23,43.62c.02.1.02.21,0,.31-1.85-.32-2.27-.86-2.27-1.23s.57-.73,1.13-.73,1.11.73,1.14,1.65Z"/>
  <path class="st0" d="M165.51,50.02v10.8h-19.56c.26-.67.38-1.39.37-2.11v-8.69h-3.48v6.94c0,2.87-1.17,4.52-3.21,4.52-.77,0-1.53-.22-2.2-.61l-.24.27c.54.72,1.24,1.31,2.04,1.73.8.41,1.69.64,2.59.65.78.02,1.55-.17,2.23-.55.68-.38,1.25-.94,1.64-1.62l2.28,1.84h20.99v-13.16h-3.47Z"/>
  <path class="st0" d="M109.03,52.4c1.05-.05,2.09.16,3.03.62.94.46,1.74,1.15,2.33,2.01.46.75.73,1.59.8,2.46.07.87-.07,1.74-.41,2.55v.17l.2.14h.12c1.09-.6,1.96-1.53,2.48-2.65.52-1.12.67-2.38.42-3.6-.29-1.23-1.02-2.32-2.04-3.07-1.03-.75-2.29-1.11-3.56-1.02h-11.95l6.06-6.35h-3.33l-5.72,6.52.43,2.22h11.13Z"/>
</svg>